# AST/ASF file generated using VICON BodyLanguage
# -----------------------------------------------
:version 1.10
:name VICON
:units
  mass 1.0
  length 0.45
  angle deg
:documentation
   .ast/.asf automatically generated from VICON data using
   VICON BodyBuilder and BodyLanguage model FoxedUp or BRILLIANT.MOD
:root
   order TX TY TZ RX RY RZ
   axis XYZ
   position 0 0 0  
   orientation 0 0 0 
:bonedata
  begin
     id 1 
     name lhipjoint
     direction 0.677091 -0.635792 0.370561 
     length 2.74323 
     axis 0 0 0  XYZ
  end
  begin
     id 2 
     name lfemur
     direction 0.34202 -0.939693 0  
     length 7.44995  
     axis 0 0 20  XYZ
    dof rx ry rz
    limits (-160.0 20.0)
           (-70.0 70.0)
           (-60.0 70.0)
  end
  begin
     id 3 
     name ltibia
     direction 0.34202 -0.939693 0   
     length 7.34467   
     axis 0 0 20   XYZ
    dof rx
    limits (-10.0 170.0)
  end
  begin
     id 4 
     name lfoot
     direction 0.101953 -0.280114 0.954537   
     length 1.72105   
     axis -90 7.62852e-016 20   XYZ
    dof rx rz
    limits (-45.0 90.0)
           (-70.0 20.0)
  end
  begin
     id 5 
     name ltoes
     direction 1.53537e-011 -4.21915e-011 1   
     length 0.865872   
     axis -90 7.62852e-016 20   XYZ
    dof rx
    limits (-90.0 20.0)
  end
  begin
     id 6 
     name rhipjoint
     direction -0.695735 -0.620586 0.361699   
     length 2.81045  
     axis 0 0 0  XYZ 
  end
  begin
     id 7 
     name rfemur
     direction -0.34202 -0.939693 0   
     length 7.29387   
     axis 0 0 -20   XYZ
    dof rx ry rz
    limits (-160.0 20.0)
           (-70.0 70.0)
           (-70.0 60.0)
  end
  begin
     id 8 
     name rtibia
     direction -0.34202 -0.939693 0   
     length 7.44935   
     axis 0 0 -20   XYZ
    dof rx
    limits (-10.0 170.0)
 end
 begin
     id 9 
     name rfoot
     direction -0.104163 -0.286184 0.952496   
     length 1.77731  
     axis -90 -7.62852e-016 -20   XYZ
    dof rx rz
    limits (-45.0 90.0)
           (-20.0 70.0)
  end
  begin
     id 10 
     name rtoes
     direction -1.5355e-011 -4.21888e-011 1   
     length 0.892424   
     axis -90 -7.62852e-016 -20   XYZ
    dof rx
    limits (-90.0 20.0)
  end
  begin
     id 11 
     name lowerback
     direction 0.0100202 0.997226 -0.0737589   
     length 2.16892   
     axis 0 0 0   XYZ
    dof rx ry rz
    limits (-20.0 45.0)
           (-30.0 30.0)
           (-30.0 30.0)
  end
  begin
     id 12 
     name upperback
     direction 0.00432398 0.999988 -0.00215019   
     length 2.17326   
     axis 0 0 0   XYZ
    dof rx ry rz
    limits (-20.0 45.0)
           (-30.0 30.0)
           (-30.0 30.0)
  end
  begin
     id 13 
     name thorax
     direction -0.00195047 0.999485 0.0320434   
     length 2.18139   
     axis 0 0 0   XYZ
    dof rx ry rz
    limits (-20.0 45.0)
           (-30.0 30.0)
           (-30.0 30.0)
  end
  begin
     id 14 
     name lowerneck
     direction 0.00782762 0.986241 0.165128   
     length 1.88415   
     axis 0 0 0   XYZ
    dof rx ry rz
    limits (-20.0 45.0)
           (-30.0 30.0)
           (-30.0 30.0)
  end
  begin
     id 15 
     name upperneck
     direction 0.00988667 0.981098 -0.193258   
     length 1.9242   
     axis 0 0 0   XYZ
    dof rx ry rz
    limits (-20.0 45.0)
           (-30.0 30.0)
           (-30.0 30.0)
  end
  begin
     id 16
     name head
     direction 0.00252199 0.996513 -0.0833958  
     length 1.93887  
     axis 0 0 0   XYZ
    dof rx ry rz
    limits (-20.0 45.0)
           (-30.0 30.0)
           (-30.0 30.0)
  end
  begin
     id 17 
     name lclavicle
     direction 0.929492 0.368193 -0.0218667  
     length 3.5955  
     axis 0 0 0   XYZ
    dof ry rz
    limits (-20.0 10.0)
           (0.0 20.0)
  end
  begin
     id 18 
     name lhumerus
     direction 1 -4.48972e-011 1.41911e-027   
     length 5.2795   
     axis 180 -30 -90   XYZ
    dof rx ry rz
    limits (-60.0 90.0)
           (-90.0 90.0)
           (-90.0 90.0)
  end
  begin
     id 19
     name lradius
     direction 1 -4.48963e-011 7.05772e-027   
     length 3.53504   
     axis 180 -30 -90   XYZ
    dof rx
    limits (-10.0 170.0)
  end
  begin
     id 20
     name lwrist
     direction 1 -4.48957e-011 9.54866e-027   
     length 1.76752   
     axis -7.69462e-015 90 90   XYZ
    dof ry
    limits (-180.0 0.0)
 end
  begin
     id 21 
     name lhand
     direction 1 -4.48979e-011 1.90973e-026   
     length 0.667948   
     axis -1.21857e-014 90 90   XYZ
    dof rx rz
    limits (-90.0 90.0)
           (-45.0 45.0)
  end
  begin
     id 22 
     name lfingers
     direction 1 -4.48987e-011 3.81946e-026   
     length 0.538517   
     axis -2.43714e-014 90 90   XYZ
    dof rx
    limits (0.0 90.0)
  end
  begin
     id 23
     name lthumb
     direction 0.707107 -6.34962e-011 0.707107   
     length 0.773206   
     axis -90 45 2.85299e-015   XYZ
    dof rx rz
    limits (-45.0 45.0)
           (-45.0 45.0)
  end
  begin
     id 24 
     name rclavicle
     direction -0.898763 0.414256 -0.143584   
     length 3.5176  
     axis 0 0 0   XYZ 
    dof ry rz
    limits (-10.0 20.0)
           (-20.0 0.0)
  end
  begin
     id 25 
     name rhumerus
     direction -1 -4.48971e-011 1.129e-027  
     length 5.25035   
     axis 180 30 90   XYZ
    dof rx ry rz
    limits (-90.0 60.0)
           (-90.0 90.0)
           (-90.0 90.0)
  end
  begin
     id 26 
     name rradius
     direction -1 -4.48955e-011 6.34664e-027   
     length 3.58884   
     axis 180 30 90   XYZ
    dof rx
    limits (-10.0 170.0)
  end
  begin
     id 27 
     name rwrist
     direction -1 -4.48966e-011 9.54866e-027   
     length 1.79442   
     axis -7.69462e-015 -90 -90   XYZ
    dof ry
    limits (-180.0 0.0)
  end
  begin
     id 28
     name rhand
     direction -1 -4.48973e-011 1.90973e-026   
     length 0.779235   
     axis -1.21857e-014 -90 -90   XYZ
    dof rx rz
    limits (-90.0 90.0)
           (-45.0 45.0)
  end
  begin
     id 29
     name rfingers
     direction -1 -4.48984e-011 3.81946e-026   
     length 0.62824   
     axis -2.43714e-014 -90 -90   XYZ
    dof rx
    limits (0.0 90.0)
  end
  begin
     id 30
     name rthumb
     direction -0.707107 -6.34968e-011 0.707107   
     length 0.90203   
     axis -90 -45 -2.85299e-015   XYZ
    dof rx rz
    limits (-45.0 45.0)
           (-45.0 45.0)
  end
:hierarchy
  begin
    root lhipjoint rhipjoint lowerback
    lhipjoint lfemur
    lfemur ltibia
    ltibia lfoot
    lfoot ltoes
    rhipjoint rfemur
    rfemur rtibia
    rtibia rfoot
    rfoot rtoes
    lowerback upperback
    upperback thorax
    thorax lowerneck lclavicle rclavicle
    lowerneck upperneck
    upperneck head
    lclavicle lhumerus
    lhumerus lradius
    lradius lwrist
    lwrist lhand lthumb
    lhand lfingers
    rclavicle rhumerus
    rhumerus rradius
    rradius rwrist
    rwrist rhand rthumb
    rhand rfingers
  end

#!OML:ASF I:\Random Stuff\random\construction\7_22_03\Session 2\subj1.ASF
:FULLY-SPECIFIED
:DEGREES
43
root -18.5184 17.6511 -1.75759 -149.05 87.2708 -153.938
lowerback 1.63958 0.785121 0.00742752
upperback -0.565422 1.07601 1.42814
thorax -1.52545 0.548091 1.42732
lowerneck -24.5343 -0.120242 0.254514
upperneck 24.5831 -0.730152 2.04896
head 12.1983 0.0471383 0.620648
rclavicle 2.21148e-015 3.18055e-015
rhumerus -42.0814 -9.86107 -73.893
rradius 26.0861
rwrist 11.1131
rhand -15.5331 19.7393
rfingers 7.12502
rthumb 10.6506 -9.97076
lclavicle 2.21148e-015 3.18055e-015
lhumerus -38.6987 -4.79391 86.8902
lradius 27.7877
lwrist 24.9816
lhand -18.9561 54.6374
lfingers 7.12502
lthumb 7.3475 84.4898
rfemur -6.73378 15.8714 21.1378
rtibia 14.3214
rfoot -14.0483 -29.0179
rtoes -1.65148
lfemur -14.6493 -17.2755 -14.6956
ltibia 22.5665
lfoot -13.8366 19.7622
ltoes -26.0433
44
root -18.5312 17.6526 -1.76207 -147.215 87.5004 -152.067
lowerback 1.69659 0.831164 -0.043605
upperback -0.569601 1.13649 1.42168
thorax -1.56412 0.578815 1.44658
lowerneck -24.4728 -0.157199 0.201294
upperneck 24.6159 -0.776666 2.10568
head 12.2003 0.0300359 0.643211
rclavicle -8.74653e-015 6.75868e-015
rhumerus -41.8454 -9.94223 -73.9223
rradius 26.0653
rwrist 10.7779
rhand -15.5882 19.146
rfingers 7.12502
rthumb 10.5974 -10.5668
lclavicle -8.74653e-015 6.75868e-015
lhumerus -38.634 -4.33016 86.5958
lradius 27.418
lwrist 24.6971
lhand -18.844 55.0315
lfingers 7.12502
lthumb 7.4557 84.8801
rfemur -6.82038 15.858 21.0717
rtibia 14.3877
rfoot -13.9975 -28.7956
rtoes -1.63805
lfemur -14.5744 -17.254 -14.7473
ltibia 22.5303
lfoot -13.8146 19.8788
ltoes -25.8693
45
root -18.5441 17.654 -1.76653 -145.411 87.7396 -150.239
lowerback 1.74755 0.832227 -0.153476
upperback -0.592387 1.1365 1.45037
thorax -1.61884 0.580372 1.53669
lowerneck -24.3809 -0.128365 0.0864131
upperneck 24.6181 -0.704768 2.15876
head 12.183 0.0581314 0.694799
rclavicle -1.70209e-014 -2.38542e-015
rhumerus -41.5695 -9.70256 -74.0424
rradius 26.1182
rwrist 10.4582
rhand -15.5748 19.2026
rfingers 7.12502
rthumb 10.6103 -10.5096
lclavicle -1.70209e-014 -2.38542e-015
lhumerus -38.5941 -3.57916 86.1863
lradius 27.0492
lwrist 24.0887
lhand -18.5487 54.9474
lfingers 7.12502
lthumb 7.74075 84.7857
rfemur -6.91455 15.848 20.9809
rtibia 14.4346
rfoot -13.9876 -28.5839
rtoes -1.27386
lfemur -14.5238 -17.28 -14.8158
ltibia 22.5028
lfoot -13.8206 20.0686
ltoes -25.5554
46
root -18.5513 17.6545 -1.77273 -142.51 87.941 -147.329
lowerback 1.7753 0.819795 -0.211736
upperback -0.6413 1.12001 1.47974
thorax -1.68586 0.573471 1.59925
lowerneck -24.302 -0.0589047 -0.0444053
upperneck 24.6759 -0.596277 2.3053
head 12.1899 0.115243 0.791498
rclavicle -1.85864e-014 -1.43125e-014
rhumerus -41.3254 -9.24202 -74.3008
rradius 26.2819
rwrist 10.1522
rhand -15.3639 19.6205
rfingers 7.12502
rthumb 10.8137 -10.0811
lclavicle -1.85864e-014 -1.43125e-014
lhumerus -38.5743 -2.70075 85.7359
lradius 26.8466
lwrist 23.6629
lhand -18.3588 55.116
lfingers 7.12502
lthumb 7.92404 84.9475
rfemur -6.97674 15.9263 20.9211
rtibia 14.4524
rfoot -13.9957 -28.4524
rtoes -1.05545
lfemur -14.4762 -17.3521 -14.8537
ltibia 22.4945
lfoot -13.8545 20.3981
ltoes -25.5192
47
root -18.555 17.6548 -1.78027 -138.893 88.0793 -143.735
lowerback 1.70924 0.810381 -0.193972
upperback -0.665267 1.108 1.4847
thorax -1.67275 0.567441 1.59555
lowerneck -24.2992 0.0169852 -0.0458641
upperneck 24.7862 -0.507228 2.37499
head 12.2317 0.166534 0.835024
rclavicle 1.01877e-014 -2.78299e-015
rhumerus -41.0232 -8.65627 -74.684
rradius 26.5563
rwrist 9.79844
rhand -15.5966 19.6592
rfingers 7.12502
rthumb 10.5893 -10.054
lclavicle 1.01877e-014 -2.78299e-015
lhumerus -38.4615 -1.7553 85.1749
lradius 26.6741
lwrist 23.4169
lhand -18.0521 54.9896
lfingers 7.12502
lthumb 8.22008 84.8097
rfemur -7.03724 15.9413 20.8908
rtibia 14.4263
rfoot -13.9963 -28.2938
rtoes -1.03522
lfemur -14.4819 -17.2423 -14.8587
ltibia 22.5215
lfoot -12.9826 20.5624
ltoes -28.9188
48
root -18.5595 17.6549 -1.78626 -134.731 88.1872 -139.59
lowerback 1.55059 0.81359 -0.184157
upperback -0.597023 1.11111 1.50559
thorax -1.51406 0.56818 1.61426
lowerneck -24.3657 0.0884072 0.0522108
upperneck 24.8087 -0.406513 2.2428
head 12.2512 0.202266 0.78632
rclavicle -2.5196e-014 -3.97569e-015
rhumerus -40.5446 -8.08648 -75.0753
rradius 26.8695
rwrist 9.52586
rhand -15.5507 19.5881
rfingers 7.12502
rthumb 10.6335 -10.1228
lclavicle -2.5196e-014 -3.97569e-015
lhumerus -38.1708 -0.930936 84.7103
lradius 26.6085
lwrist 23.6867
lhand -18.129 55.1244
lfingers 7.12502
lthumb 8.14581 84.9474
rfemur -7.074 16.0489 20.8939
rtibia 14.373
rfoot -14.0107 -28.2469
rtoes -0.744441
lfemur -14.5062 -16.9719 -14.848
ltibia 22.5682
lfoot -14.053 20.394
ltoes -25.3171
49
root -18.5642 17.6547 -1.79126 -129.738 88.2392 -134.605
lowerback 1.40739 0.834176 -0.128942
upperback -0.531452 1.13852 1.53001
thorax -1.36674 0.580806 1.61028
lowerneck -24.3923 0.0715087 0.08144
upperneck 24.7534 -0.418368 2.15725
head 12.2344 0.186515 0.746211
rclavicle -7.67806e-015 -1.78906e-014
rhumerus -40.0399 -7.61754 -75.4463
rradius 27.1493
rwrist 9.38906
rhand -15.5111 19.3885
rfingers 7.12502
rthumb 10.6718 -10.3205
lclavicle -7.67806e-015 -1.78906e-014
lhumerus -37.8148 -0.322935 84.3754
lradius 26.6099
lwrist 24.3066
lhand -18.6319 55.4677
lfingers 7.12502
lthumb 7.66047 85.3089
rfemur -7.11016 16.2598 20.9516
rtibia 14.3493
rfoot -13.975 -28.3306
rtoes -0.373596
lfemur -14.5141 -16.867 -14.7795
ltibia 22.5956
lfoot -13.1498 20.464
ltoes -29.0082
50
root -18.5695 17.6544 -1.79893 -126.7 88.2993 -131.605
lowerback 1.24099 0.833806 -0.0895847
upperback -0.487325 1.13663 1.51492
thorax -1.22703 0.578745 1.57572
lowerneck -24.38 0.0666006 0.212948
upperneck 24.7364 -0.438543 2.02906
head 12.2249 0.172008 0.671794
rclavicle -3.8266e-015 -1.39149e-014
rhumerus -39.2481 -7.10958 -75.8614
rradius 26.8777
rwrist 9.32362
rhand -15.6706 19.891
rfingers 7.12502
rthumb 10.5179 -9.82583
lclavicle -3.8266e-015 -1.39149e-014
lhumerus -37.33 0.719954 83.7008
lradius 26.4108
lwrist 23.6397
lhand -17.6192 55.2128
lfingers 7.12502
lthumb 8.63787 85.0161
rfemur -7.2205 16.2308 20.9223
rtibia 14.3861
rfoot -13.934 -28.2431
rtoes -0.522241
lfemur -14.5385 -16.9455 -14.767
ltibia 22.5781
lfoot -14.2241 20.5582
ltoes -25.4739
51
root -18.5749 17.6538 -1.808 -126.462 88.4203 -131.382
lowerback 1.94471 0.795167 -0.182645
upperback -1.08285 1.09582 1.47612
thorax -2.23297 0.565587 1.57431
lowerneck -23.8553 0.048397 0.330983
upperneck 25.1567 -0.474662 1.98501
head 12.2884 0.171597 0.632598
rclavicle -6.53505e-015 9.93923e-015
rhumerus -39.1908 -6.06519 -76.302
rradius 26.2399
rwrist 9.15982
rhand -15.9768 19.8727
rfingers 7.12502
rthumb 10.2226 -9.85886
lclavicle -6.53505e-015 9.93923e-015
lhumerus -37.8997 1.26249 83.3664
lradius 26.5147
lwrist 24.4769
lhand -18.6999 55.6845
lfingers 7.12502
lthumb 7.59479 85.5282
rfemur -7.33032 16.011 20.784
rtibia 14.4767
rfoot -13.9263 -28.017
rtoes -0.73713
lfemur -14.516 -17.0153 -14.8811
ltibia 22.5152
lfoot -14.2089 20.6672
ltoes -25.2203
52
root -18.5789 17.6529 -1.81429 -126.538 88.5256 -131.387
lowerback 2.2381 0.765754 -0.244966
upperback -1.29149 1.05723 1.40681
thorax -2.61123 0.548972 1.53428
lowerneck -23.7005 0.0215767 0.338847
upperneck 25.4512 -0.537959 2.09182
head 12.3759 0.166347 0.664156
rclavicle 5.34234e-016 2.38542e-015
rhumerus -38.7264 -5.18906 -76.8461
rradius 25.9792
rwrist 8.9801
rhand -15.7381 20.3863
rfingers 7.12502
rthumb 10.4528 -9.33381
lclavicle 5.34234e-016 2.38542e-015
lhumerus -37.747 2.01863 82.8432
lradius 26.4399
lwrist 23.3869
lhand -17.6865 55.6826
lfingers 7.12502
lthumb 8.57293 85.4885
rfemur -7.35093 15.9508 20.6963
rtibia 14.621
rfoot -13.9799 -27.9275
rtoes -0.510219
lfemur -14.3722 -17.0313 -15.0012
ltibia 22.4101
lfoot -14.2272 20.6547
ltoes -24.7785
53
root -18.5825 17.6521 -1.81899 -125.841 88.588 -130.617
lowerback 2.30333 0.762262 -0.259124
upperback -1.33012 1.05073 1.34231
thorax -2.68651 0.545566 1.4751
lowerneck -23.6733 -0.0246461 0.262226
upperneck 25.654 -0.628605 2.28603
head 12.4536 0.150767 0.737987
rclavicle 1.36664e-016 -9.14409e-015
rhumerus -38.2164 -4.62555 -77.2931
rradius 26.1652
rwrist 8.99176
rhand -15.7281 20.3998
rfingers 7.12502
rthumb 10.4625 -9.31981
lclavicle 1.36664e-016 -9.14409e-015
lhumerus -37.3754 1.91509 82.8928
lradius 26.6781
lwrist 24.3326
lhand -19.0959 56.254
lfingers 7.12502
lthumb 7.2126 86.111
rfemur -7.37712 15.9049 20.6681
rtibia 14.7721
rfoot -13.9675 -27.8469
rtoes -0.225087
lfemur -14.2265 -17.0331 -15.0704
ltibia 22.2919
lfoot -14.2667 20.6358
ltoes -24.4313
54
root -18.5864 17.651 -1.82334 -126.25 88.6516 -130.994
lowerback 2.32189 0.744053 -0.317363
upperback -1.3777 1.02354 1.29635
thorax -2.74533 0.532923 1.46127
lowerneck -23.5247 -0.0653622 0.165035
upperneck 25.6886 -0.706094 2.49193
head 12.4407 0.137135 0.819738
rclavicle 1.99903e-014 -1.98785e-015
rhumerus -37.695 -4.04129 -77.7186
rradius 26.3779
rwrist 9.11948
rhand -15.5933 20.4409
rfingers 7.12502
rthumb 10.5925 -9.27212
lclavicle 1.99903e-014 -1.98785e-015
lhumerus -36.9326 2.06623 82.788
lradius 26.8972
lwrist 24.2664
lhand -19.2486 56.6634
lfingers 7.12502
lthumb 7.06517 86.5255
rfemur -7.44244 15.7022 20.6114
rtibia 14.8645
rfoot -13.85 -27.6448
rtoes 0.11517
lfemur -14.1555 -17.0016 -15.1547
ltibia 22.1996
lfoot -14.2456 20.6403
ltoes -24.3987
55
root -18.5902 17.6499 -1.82719 -127.316 88.7142 -132.039
lowerback 2.29527 0.712286 -0.399305
upperback -1.41046 0.977469 1.26365
thorax -2.76356 0.511279 1.47594
lowerneck -23.4232 -0.121554 0.00865762
upperneck 25.7402 -0.799224 2.74571
head 12.4449 0.117517 0.927449
rclavicle 1.0635e-014 1.39149e-015
rhumerus -37.1242 -3.28288 -78.1965
rradius 26.6164
rwrist 9.16935
rhand -15.6875 20.2443
rfingers 7.12502
rthumb 10.5016 -9.47334
lclavicle 1.0635e-014 1.39149e-015
lhumerus -36.4379 2.15486 82.7918
lradius 27.153
lwrist 24.1076
lhand -19.398 56.9474
lfingers 7.12502
lthumb 6.92098 86.8143
rfemur -7.49179 15.5699 20.5466
rtibia 14.9086
rfoot -13.7727 -27.5229
rtoes 0.78765
lfemur -14.1169 -16.9105 -15.2443
ltibia 22.1353
lfoot -14.0867 20.5834
ltoes -24.7916
56
root -18.5952 17.6494 -1.83232 -128.253 88.7438 -132.972
lowerback 2.27068 0.706753 -0.420451
upperback -1.44777 0.968665 1.22828
thorax -2.78759 0.507183 1.45193
lowerneck -23.4482 -0.196694 -0.0757213
upperneck 25.9379 -0.905351 2.85357
head 12.5318 0.0820252 0.967651
rclavicle 6.33626e-016 -4.96962e-015
rhumerus -36.5807 -2.63284 -78.6075
rradius 26.9212
rwrist 9.3288
rhand -15.8812 20.1273
rfingers 7.12502
rthumb 10.3147 -9.59973
lclavicle 6.33626e-016 -4.96962e-015
lhumerus -36.0035 1.78756 83.0122
lradius 27.6735
lwrist 24.1089
lhand -19.4051 56.9575
lfingers 7.12502
lthumb 6.91413 86.8246
rfemur -7.5397 15.5428 20.4998
rtibia 14.9422
rfoot -13.7426 -27.534
rtoes 1.41811
lfemur -14.1151 -16.7986 -15.2997
ltibia 22.0887
lfoot -13.7132 20.4669
ltoes -26.1175
57
root -18.599 17.6484 -1.83913 -130.19 88.7685 -134.888
lowerback 2.26637 0.693579 -0.448413
upperback -1.48212 0.949998 1.21075
thorax -2.82016 0.498551 1.45034
lowerneck -23.4101 -0.210437 -0.0997451
upperneck 26.0551 -0.900897 2.81251
head 12.5707 0.078424 0.958374
rclavicle -2.18663e-015 1.78906e-015
rhumerus -36.0562 -2.0049 -78.9695
rradius 27.357
rwrist 9.52763
rhand -16.0125 20.0815
rfingers 7.12502
rthumb 10.1881 -9.65176
lclavicle -2.18663e-015 1.78906e-015
lhumerus -35.6562 1.16035 83.3819
lradius 28.4549
lwrist 24.3794
lhand -19.5119 56.9258
lfingers 7.12502
lthumb 6.81098 86.7962
rfemur -7.5471 15.4489 20.4322
rtibia 14.9548
rfoot -13.6594 -27.4886
rtoes 1.63662
lfemur -14.1041 -16.7582 -15.3835
ltibia 22.062
lfoot -12.8507 20.4432
ltoes -29.3581
